<?xml version="1.0" standalone="no"?>
<!DOCTYPE svg PUBLIC "-//W3C//DTD SVG 20010904//EN"
 "http://www.w3.org/TR/2001/REC-SVG-20010904/DTD/svg10.dtd">
<svg version="1.0" xmlns="http://www.w3.org/2000/svg"
 width="280.000000pt" height="276.000000pt" viewBox="0 0 280.000000 276.000000"
 preserveAspectRatio="xMidYMid meet">

<g transform="translate(0.000000,276.000000) scale(0.100000,-0.100000)"
fill="#000000" stroke="none">
<path d="M0 1775 c0 -542 3 -985 6 -985 3 0 32 23 65 51 l59 52 0 333 0 334
374 0 375 0 125 -147 126 -148 0 -152 0 -152 -125 -146 c-69 -80 -125 -150
-125 -154 0 -5 70 -150 155 -322 85 -172 155 -318 155 -326 0 -10 58 -13 308
-13 l307 0 -3 334 -3 333 -59 49 c-32 27 -59 54 -59 61 -1 6 26 35 59 64 l60
52 0 333 0 334 378 0 377 -1 115 -135 c63 -75 118 -138 123 -141 4 -2 7 329 7
736 l0 741 -1400 0 -1400 0 0 -985z m1771 946 c11 -13 19 -39 19 -61 l0 -37
62 -7 c69 -7 108 -27 108 -55 0 -28 -79 -95 -157 -135 -340 -171 -963 -254
-963 -129 0 19 58 76 105 104 l40 24 -47 -46 c-27 -25 -48 -50 -48 -56 0 -24
41 -45 97 -50 l58 -5 0 214 c0 228 2 239 50 259 11 4 163 7 338 6 l319 -2 19
-24z m-6 -488 c-24 -21 -36 -23 -141 -23 l-114 0 0 -29 c0 -20 8 -36 28 -50
l27 -20 -142 -1 c-164 0 -185 12 -68 40 l30 7 -27 2 c-23 1 -28 6 -28 26 l0
25 -117 1 -118 1 85 14 c47 7 115 19 153 27 37 8 70 11 73 6 8 -13 24 -11 24
4 0 20 124 51 230 57 l95 5 3 30 c2 16 9 33 15 37 9 5 13 -13 15 -65 3 -67 1
-74 -23 -94z"/>
<path d="M1086 2684 c-10 -27 -7 -324 4 -345 10 -18 23 -19 174 -19 159 0 165
1 276 36 63 20 138 47 167 60 l54 23 -3 128 -3 128 -331 3 c-296 2 -332 1
-338 -14z m134 2 c0 -2 -18 -30 -39 -62 -22 -33 -47 -84 -58 -114 l-18 -55 -3
104 c-1 58 0 111 2 118 4 9 24 13 61 13 30 0 55 -2 55 -4z"/>
<path d="M1790 2535 c0 -41 4 -75 9 -75 18 0 101 83 101 101 0 22 -47 49 -85
49 -25 0 -25 -1 -25 -75z"/>
<path d="M350 1110 l0 -220 209 0 209 0 66 81 c65 81 66 82 66 143 0 61 -1 63
-62 138 l-63 77 -212 0 -213 1 0 -220z"/>
<path d="M2022 1113 l3 -218 210 0 209 0 68 83 c65 80 68 86 68 137 0 51 -3
57 -66 134 l-66 81 -214 0 -214 0 2 -217z"/>
<path d="M2670 805 l-124 -145 -263 0 -263 0 0 -330 0 -330 390 0 390 0 0 475
c0 261 -1 475 -3 475 -1 0 -58 -65 -127 -145z"/>
<path d="M0 385 l0 -385 65 0 65 0 0 328 0 329 -59 56 c-33 32 -62 57 -65 57
-3 0 -6 -173 -6 -385z"/>
<path d="M350 330 l0 -330 304 0 304 0 -161 330 -162 330 -142 0 -143 0 0
-330z"/>
</g>
</svg>
